<?xml version="1.0" encoding="utf-8"?>
<svg viewBox="0 0 368 360" xmlns="http://www.w3.org/2000/svg">
  <g transform="matrix(0.3515630066394806, 0, 0, 0.3515630066394806, 225.00010681152344, 180.00010681152344)" id="background-logo">
    <rect style="stroke: none; stroke-width: 0; stroke-dasharray: none; stroke-linecap: butt; stroke-dashoffset: 0; stroke-linejoin: miter; stroke-miterlimit: 4; fill: rgb(255,255,255); fill-opacity: 0; fill-rule: nonzero; opacity: 1;" paint-order="stroke" x="-640" y="-512" rx="0" ry="0" width="1280" height="1024"/>
  </g>
  <g transform="matrix(1.9211540222167969, 0, 0, 1.9211540222167969, 186.08612060546875, 179.56407165527344)" id="logo-logo">
    <g style="" paint-order="stroke">
      <g transform="matrix(0.1886505329243402 0 0 0.1886505329243402 0 11.731003657797032)">
        <g style="" paint-order="stroke">
          <g transform="matrix(1 0 0 1 280.4593852483283 0)">
            <path style="stroke: none; stroke-width: 1; stroke-dasharray: none; stroke-linecap: butt; stroke-dashoffset: 0; stroke-linejoin: miter; stroke-miterlimit: 4; fill: rgb(48,85,49); fill-rule: nonzero; opacity: 1;" paint-order="stroke" transform=" translate(-880.1164789780337, -661.8221275174637)" d="M 970.8 493.5 C 918.5999999999999 465 885.0999999999999 527.7 878.4 570.8 L 824.6 570.8 C 818.6 570.8 813.1 573.3 809.1 577.3 C 805.1 581.3 802.6 586.6999999999999 802.6 592.6999999999999 C 802.6 604.8 812.5 614.5999999999999 824.5 614.5999999999999 L 878 614.5999999999999 C 878.3 616.9999999999999 878.8 619.8 879.4 622.8 C 878.3 626.3 877.1999999999999 629.5999999999999 875.9 632.4 C 870.6999999999999 643.1 864.1 653.1 856.6 662.3 C 842 680.1999999999999 823.7 695.1999999999999 804.5 707.3 C 797.2 711.9 789.7 716.1999999999999 782 720.0999999999999 C 780.4 720.8999999999999 774 722.8 773.2 724.3999999999999 C 773.2 724.3999999999999 736.1 791.5999999999999 753.6 836.0999999999999 C 755 839.8 783.5 833.9999999999999 787.1 833.0999999999999 C 797.6 830.5999999999999 807.6 826.4999999999999 817 821.3 C 874.4 789.5999999999999 914.3 718.9 923 655.0999999999999 C 924.9 641.3 925.1 624.4999999999999 918.9 611.6999999999999 C 916.1999999999999 606.1999999999999 910.6 600.9999999999999 904.4 599.0999999999999 C 913.8 595.8 924.6999999999999 603.3 928.8 611.6999999999999 C 935 624.4999999999999 934.8 641.3 933 655.0999999999999 C 931.2 668.3 928 681.8999999999999 923.7 695.3999999999999 C 938.6 705.4999999999999 956.5 709.9999999999999 973 699.2999999999998 C 983.1 692.7999999999998 992.6 682.9999999999999 997.9 672.0999999999998 C 1005.6999999999999 655.8999999999997 1008.5 637.4999999999998 1010.3 619.7999999999998 C 1013.1999999999999 590.3999999999999 1009.9 560.0999999999998 1000.9 531.9999999999999 C 995.5 516 985.6 501.6 970.8 493.5 z" stroke-linecap="round"/>
          </g>
          <g transform="matrix(1 0 0 1 462.54999999999995 -64.92212751746365)">
            <path style="stroke: none; stroke-width: 1; stroke-dasharray: none; stroke-linecap: butt; stroke-dashoffset: 0; stroke-linejoin: miter; stroke-miterlimit: 4; fill: rgb(48,85,49); fill-rule: nonzero; opacity: 1;" paint-order="stroke" transform=" translate(-1062.2070937297053, -596.9000000000001)" d="M 1066.4 580 C 1063.5 576 1059.7 572.7 1055.2 570.5 L 1054.5 570.2 L 1053.1 569.7 C 1057.5 593.6 1052.6999999999998 624.1 1052.6999999999998 624.1 C 1063.9999999999998 619.8000000000001 1072.1 608.8000000000001 1071.6999999999998 596 C 1071.7 590 1069.7 584.5 1066.4 580 z" stroke-linecap="round"/>
          </g>
          <g transform="matrix(1 0 0 1 427.0188645076173 -70.17212751746376)">
            <path style="stroke: none; stroke-width: 1; stroke-dasharray: none; stroke-linecap: butt; stroke-dashoffset: 0; stroke-linejoin: miter; stroke-miterlimit: 4; fill: rgb(48,85,49); fill-rule: nonzero; opacity: 1;" paint-order="stroke" transform=" translate(-1026.6759582373227, -591.65)" d="M 1042.8 562.7 C 1041 551 1039.1 536.3000000000001 1033.1 526.1 C 1027.6 516.9 1018.0999999999999 509.90000000000003 1007.8999999999999 506.8 C 1036.1999999999998 568.3 1025.8999999999999 649.3 1012.2999999999998 676.5 C 1012.4999999999999 676.1 1014.8999999999999 675.5 1015.2999999999998 675.3 C 1018.0999999999998 674 1020.6999999999998 672.4 1023.0999999999998 670.5 C 1036.6 660 1041.1 643.3 1043.3999999999999 627.2 C 1045.4999999999998 613 1045.8999999999999 598.1 1044.9999999999998 583.5 C 1044.5 576.5 1043.8 569.5 1042.8 562.7 z" stroke-linecap="round"/>
          </g>
          <g transform="matrix(1 0 0 1 -400.9073878301374 -42.77212751746379)">
            <path style="stroke: none; stroke-width: 1; stroke-dasharray: none; stroke-linecap: butt; stroke-dashoffset: 0; stroke-linejoin: miter; stroke-miterlimit: 4; fill: rgb(48,85,49); fill-rule: nonzero; opacity: 1;" paint-order="stroke" transform=" translate(-198.74970589956797, -619.05)" d="M 184 512.4 C 169.4 512.4 155.2 517.5 142.8 527.1999999999999 C 136 532.4999999999999 134.9 542.3 140.20000000000002 548.9999999999999 C 145.50000000000003 555.6999999999999 155.3 556.8999999999999 162.00000000000003 551.5999999999999 C 169.00000000000003 546.0999999999999 176.40000000000003 543.3999999999999 184.00000000000003 543.3999999999999 C 210.80000000000004 543.3999999999999 233.50000000000003 577.9999999999999 233.50000000000003 618.9999999999999 C 233.50000000000003 659.9999999999999 210.80000000000004 694.5999999999999 184.00000000000003 694.5999999999999 C 173.00000000000003 694.5999999999999 164.30000000000004 688.6999999999999 159.00000000000003 683.6999999999999 C 152.70000000000002 677.9 142.90000000000003 678.3 137.00000000000003 684.5999999999999 C 131.20000000000002 690.8999999999999 131.60000000000002 700.6999999999999 137.90000000000003 706.5999999999999 C 151.40000000000003 719.0999999999999 167.40000000000003 725.6999999999999 184.00000000000003 725.6999999999999 C 228.40000000000003 725.6999999999999 264.6 677.9 264.6 619.0999999999999 C 264.6 560.3 228.5 512.4 184 512.4 z" stroke-linecap="round"/>
          </g>
          <g transform="matrix(1 0 0 1 -443.30709372970546 -42.72212751746383)">
            <path style="stroke: none; stroke-width: 1; stroke-dasharray: none; stroke-linecap: butt; stroke-dashoffset: 0; stroke-linejoin: miter; stroke-miterlimit: 4; fill: rgb(48,85,49); fill-rule: nonzero; opacity: 1;" paint-order="stroke" transform=" translate(-156.34999999999994, -619.0999999999999)" d="M 144.4 648 C 145.4 648.2 146.4 648.3 147.4 648.3 C 148.20000000000002 648.3 148.9 648.0999999999999 149.6 648 C 150.6 648.2 151.6 648.3 152.6 648.3 C 153.4 648.3 154.1 648.0999999999999 154.79999999999998 648 C 155.79999999999998 648.2 156.79999999999998 648.3 157.79999999999998 648.3 C 158.6 648.3 159.29999999999998 648.0999999999999 159.99999999999997 648 C 160.99999999999997 648.2 161.99999999999997 648.3 162.99999999999997 648.3 C 175.19999999999996 648.3 185.09999999999997 635.1999999999999 185.09999999999997 619.0999999999999 C 185.09999999999997 602.9999999999999 175.19999999999996 589.8999999999999 162.99999999999997 589.8999999999999 C 162.19999999999996 589.8999999999999 161.49999999999997 590.1999999999998 160.69999999999996 590.2999999999998 C 159.69999999999996 590.0999999999998 158.69999999999996 589.8999999999999 157.69999999999996 589.8999999999999 C 156.89999999999995 589.8999999999999 156.19999999999996 590.1999999999998 155.39999999999995 590.2999999999998 C 154.39999999999995 590.0999999999998 153.39999999999995 589.8999999999999 152.39999999999995 589.8999999999999 C 151.59999999999994 589.8999999999999 150.89999999999995 590.1999999999998 150.09999999999994 590.2999999999998 C 149.09999999999994 590.0999999999998 148.09999999999994 589.8999999999999 147.09999999999994 589.8999999999999 C 146.29999999999993 589.8999999999999 145.59999999999994 590.1999999999998 144.79999999999993 590.2999999999998 C 143.79999999999993 590.0999999999998 142.79999999999993 589.8999999999999 141.79999999999993 589.8999999999999 C 137.79999999999993 589.8999999999999 133.89999999999992 591.3999999999999 130.49999999999991 593.9999999999999 C 128.99999999999991 595.0999999999999 128.49999999999991 596.8999999999999 128.99999999999991 598.4999999999999 L 134.29999999999993 598.4999999999999 L 139.59999999999994 598.4999999999999 L 141.79999999999993 598.4999999999999 C 149.19999999999993 598.4999999999999 155.29999999999993 607.9999999999999 155.29999999999993 619.0999999999999 C 155.29999999999993 629.9999999999999 149.49999999999991 639.1999999999999 142.49999999999991 639.6999999999999 L 141.0999999999999 639.6999999999999 L 138.1999999999999 639.6999999999999 L 132.8999999999999 639.6999999999999 L 127.5999999999999 639.6999999999999 C 127.5999999999999 640.9 127.9999999999999 642.1999999999999 128.8999999999999 642.9999999999999 C 132.6999999999999 646.4999999999999 136.9999999999999 648.1999999999999 141.59999999999988 648.1999999999999 C 143 648.3 143.7 648.1 144.4 648 z" stroke-linecap="round"/>
          </g>
        </g>
      </g>
      <g transform="matrix(0.1886505329243402 0 0 0.1886505329243402 -17.122564614844066 0)">
        <g style="" paint-order="stroke">
          <g transform="matrix(1 0 0 1 -169.15336224351074 -361.4431026205113)">
            <path style="stroke: none; stroke-width: 1; stroke-dasharray: none; stroke-linecap: butt; stroke-dashoffset: 0; stroke-linejoin: miter; stroke-miterlimit: 4; fill: rgb(59,131,63); fill-rule: nonzero; opacity: 1;" paint-order="stroke" transform=" translate(-339.74032706098063, -238.19524266241268)" d="M 453.6 314.9 C 453.6 314.9 472.8 87.19999999999999 226.3 159.89999999999998 C 216.3 232.39999999999998 305.1 341.29999999999995 424.8 330 C 439.3 329.8 453.6 314.9 453.6 314.9 z" stroke-linecap="round"/>
          </g>
          <g transform="matrix(1 0 0 1 0 13.549154717076021)">
            <path style="stroke: none; stroke-width: 1; stroke-dasharray: none; stroke-linecap: butt; stroke-dashoffset: 0; stroke-linejoin: miter; stroke-miterlimit: 4; fill: rgb(138,194,65); fill-rule: nonzero; opacity: 1;" paint-order="stroke" transform=" translate(-508.8936893044914, -613.1875)" d="M 854.5 579.4 C 806.9 326.5 567.8 361.5 561.4 359.29999999999995 C 555.1 357.19999999999993 546.6 312.79999999999995 550.8 270.49999999999994 C 555 228.19999999999993 566.5999999999999 220.79999999999995 565.5999999999999 212.29999999999995 C 564.4999999999999 203.79999999999995 578.3 183.69999999999996 565.5999999999999 177.39999999999995 C 552.8999999999999 171.09999999999994 483.0999999999999 171.09999999999994 469.2999999999999 177.39999999999995 C 455.5999999999999 183.69999999999996 443.8999999999999 195.39999999999995 458.6999999999999 215.09999999999997 C 473.59999999999985 234.89999999999998 477.7999999999999 285.29999999999995 476.6999999999999 312.79999999999995 C 426.9999999999999 256.69999999999993 315.79999999999984 205.89999999999995 305.29999999999984 216.49999999999994 C 330.6999999999998 234.49999999999994 432.29999999999984 348.69999999999993 434.39999999999986 369.9 C 244.99999999999986 380.5 176.29999999999984 488.4 176.29999999999984 488.4 C 176.19999999999985 488.59999999999997 176.09999999999985 488.79999999999995 175.89999999999984 489.09999999999997 C 176.69999999999985 488.99999999999994 177.49999999999983 488.99999999999994 178.29999999999984 488.99999999999994 C 243.49999999999983 488.99999999999994 296.49999999999983 545.6999999999999 297.79999999999984 616.1999999999999 C 300.79999999999984 614.6999999999999 304.09999999999985 613.8 307.6999999999998 613.8 L 426.79999999999984 613.8 C 439.1999999999998 613.8 449.1999999999998 623.9 449.1999999999998 636.1999999999999 C 449.1999999999998 642.4 446.6999999999998 647.9 442.5999999999998 652.0999999999999 C 438.5999999999998 656.0999999999999 432.8999999999998 658.6999999999999 426.6999999999998 658.6999999999999 L 383.0999999999998 658.6999999999999 C 382.9999999999998 658.9 382.9999999999998 659.3 382.9999999999998 659.4999999999999 C 382.89999999999975 659.7999999999998 382.89999999999975 660.0999999999999 382.89999999999975 660.2999999999998 C 382.7999999999997 660.4999999999999 382.7999999999997 660.7999999999998 382.7999999999997 660.9999999999999 L 382.7999999999997 663.9999999999999 C 382.6999999999997 666.6999999999999 382.7999999999997 669.3999999999999 382.9999999999997 671.9999999999999 C 383.09999999999974 674.4999999999999 383.2999999999997 676.9999999999999 383.59999999999974 679.3999999999999 C 383.7999999999997 681.7999999999998 384.09999999999974 684.0999999999999 384.4999999999997 686.3999999999999 C 384.7999999999997 688.8999999999999 385.1999999999997 691.1999999999998 385.7999999999997 693.5999999999999 C 386.1999999999997 695.3999999999999 386.4999999999997 697.0999999999999 386.9999999999997 698.8 C 387.3999999999997 700.4 387.7999999999997 702 388.2999999999997 703.5 C 388.59999999999974 704.6 388.89999999999975 705.7 389.2999999999997 706.7 C 389.2999999999997 706.8000000000001 389.39999999999975 707 389.39999999999975 707.1 L 390.69999999999976 710.8000000000001 C 390.9999999999998 711.7 391.2999999999998 712.6 391.7999999999998 713.5000000000001 C 392.19999999999976 714.8000000000001 392.7999999999998 716.0000000000001 393.3999999999998 717.3000000000001 C 393.6999999999998 718.2 394.0999999999998 718.9000000000001 394.49999999999983 719.7 C 395.29999999999984 721.4000000000001 396.1999999999998 723.2 396.99999999999983 724.9000000000001 C 397.09999999999985 725.1000000000001 397.09999999999985 725.3000000000001 397.29999999999984 725.5000000000001 C 398.29999999999984 727.4000000000001 399.39999999999986 729.2000000000002 400.49999999999983 731.0000000000001 C 402.09999999999985 733.6000000000001 403.6999999999998 736.1000000000001 405.49999999999983 738.5000000000001 C 406.1999999999998 739.6000000000001 407.09999999999985 740.6000000000001 407.79999999999984 741.5000000000001 C 411.1999999999998 745.7000000000002 414.59999999999985 749.5000000000001 418.29999999999984 752.9000000000001 C 419.39999999999986 754.0000000000001 420.59999999999985 755.0000000000001 421.79999999999984 756.1000000000001 C 435.1999999999998 767.8000000000002 451.89999999999986 777.0000000000001 468.99999999999983 778.6000000000001 C 473.6999999999998 779.2000000000002 477.79999999999984 779.1000000000001 480.8999999999998 778.3000000000002 C 481.2999999999998 778.2000000000002 481.7999999999998 778.1000000000001 482.0999999999998 777.9000000000002 C 482.3999999999998 777.8000000000002 482.6999999999998 777.7000000000002 482.9999999999998 777.5000000000002 C 479.2999999999998 778.8000000000002 473.89999999999975 777.1000000000003 468.5999999999998 774.1000000000003 C 468.5999999999998 774.1000000000003 468.4999999999998 774.1000000000003 468.4999999999998 774.0000000000002 C 460.69999999999976 769.7000000000003 453.0999999999998 762.9000000000002 450.9999999999998 758.7000000000003 C 449.89999999999975 756.5000000000002 449.19999999999976 754.4000000000003 448.89999999999975 752.5000000000002 C 448.7999999999997 752.4000000000002 448.7999999999997 752.4000000000002 448.89999999999975 752.4000000000002 L 448.89999999999975 752.3000000000002 C 447.4999999999998 741.4000000000002 460.09999999999974 736.6000000000001 474.2999999999997 735.5000000000002 C 474.4999999999997 735.4000000000002 474.6999999999997 735.4000000000002 474.89999999999975 735.4000000000002 C 487.89999999999975 734.4000000000002 502.09999999999974 736.4000000000002 507.69999999999976 739.4000000000002 C 514.4999999999998 743.2000000000002 520.0999999999998 748.5000000000002 524.5999999999998 754.8000000000002 C 524.6999999999998 754.9000000000002 524.6999999999998 755.0000000000002 524.7999999999998 755.0000000000002 C 534.6999999999998 769.1000000000003 539.0999999999998 787.9000000000002 538.8999999999999 804.4000000000002 C 538.7999999999998 812.0000000000002 537.4999999999999 819.3000000000002 535.0999999999999 825.8000000000002 C 535.0999999999999 825.9000000000002 535.0999999999999 826.0000000000002 534.9999999999999 826.0000000000002 C 533.3999999999999 830.3000000000002 531.4999999999999 834.4000000000002 528.9999999999999 838.2000000000003 C 523.6999999999999 846.6000000000003 516.2999999999998 853.7000000000003 507.39999999999986 859.0000000000002 C 507.29999999999984 859.1000000000003 507.29999999999984 859.1000000000003 507.1999999999999 859.1000000000003 C 503.9999999999999 861.1000000000003 500.4999999999999 862.8000000000003 496.9999999999999 864.3000000000003 C 496.0999999999999 864.7000000000003 495.0999999999999 865.0000000000003 494.1999999999999 865.4000000000003 C 488.4999999999999 867.5000000000003 482.6999999999999 869.2000000000003 476.6999999999999 870.3000000000003 C 475.9999999999999 870.4000000000003 475.39999999999986 870.6000000000003 474.6999999999999 870.7000000000003 C 448.7999999999999 875.2000000000003 420.7999999999999 870.9000000000003 397.6999999999999 858.2000000000003 C 396.4999999999999 857.5000000000002 395.1999999999999 856.8000000000003 393.9999999999999 856.0000000000002 C 391.7999999999999 854.6000000000003 389.4999999999999 853.2000000000003 387.1999999999999 851.5000000000002 C 386.2999999999999 850.9000000000002 385.39999999999986 850.3000000000002 384.4999999999999 849.6000000000003 C 384.2999999999999 849.4000000000002 383.89999999999986 849.2000000000003 383.6999999999999 848.9000000000002 C 378.7999999999999 845.0000000000002 374.2999999999999 840.8000000000002 370.1999999999999 836.0000000000002 C 368.7999999999999 834.4000000000002 367.4999999999999 832.8000000000002 366.2999999999999 831.1000000000003 C 365.3999999999999 829.9000000000002 364.5999999999999 828.7000000000003 363.7999999999999 827.4000000000002 C 362.8999999999999 826.2000000000002 362.0999999999999 824.9000000000002 361.2999999999999 823.7000000000002 C 360.5999999999999 822.4000000000002 359.6999999999999 821.1000000000001 358.9999999999999 819.8000000000002 C 342.9999999999999 792.5000000000002 336.9999999999999 759.1000000000001 335.5999999999999 727.7000000000002 C 335.4999999999999 726.5000000000001 335.4999999999999 725.3000000000002 335.4999999999999 724.2000000000002 C 335.39999999999986 723.0000000000001 335.39999999999986 721.9000000000002 335.39999999999986 720.8000000000002 C 335.29999999999984 719.8000000000002 335.29999999999984 718.9000000000002 335.29999999999984 717.9000000000002 C 335.1999999999998 717.5000000000002 335.1999999999998 717.2000000000002 335.1999999999998 716.8000000000002 C 334.99999999999983 700.4000000000002 334.49999999999983 677.0000000000002 339.99999999999983 658.2000000000002 L 307.3999999999998 658.2000000000002 C 302.0999999999998 658.2000000000002 297.0999999999998 656.3000000000002 293.1999999999998 653.0000000000001 C 279.1999999999998 707.8000000000001 232.8999999999998 747.9000000000001 177.99999999999983 747.9000000000001 C 172.59999999999982 747.9000000000001 167.19999999999982 747.5000000000001 161.99999999999983 746.7 C 166.99999999999983 764.4000000000001 174.09999999999982 782.4000000000001 182.99999999999983 800.2 C 246.49999999999983 929.2 395.49999999999983 1053.7 432.99999999999983 1053.7 C 478.49999999999983 1053.7 489.09999999999985 1018.8000000000001 515.5999999999998 1009.3000000000001 C 542.0999999999998 999.7 573.6999999999998 1025.1000000000001 599.0999999999998 1039.9 C 624.4999999999998 1054.7 672.0999999999998 1036.7 693.2999999999998 1010.3000000000001 C 714.9 984.6 871.5 770.9 854.5 579.4 z" stroke-linecap="round"/>
          </g>
          <g transform="matrix(1 0 0 1 -178.9936893044914 172.12033767500168)">
            <path style="stroke: none; stroke-width: 1; stroke-dasharray: none; stroke-linecap: butt; stroke-dashoffset: 0; stroke-linejoin: miter; stroke-miterlimit: 4; fill: rgb(59,131,63); fill-rule: nonzero; opacity: 1;" paint-order="stroke" transform=" translate(-329.9, -771.7586829579257)" d="M 497.3 864.9 C 334.9 946.2 297 808 297 743.8 C 269.3 786.4 213.8 797.8 183.5 800.9 C 174.6 783.1 167.5 765.1 162.5 747.4 C 167.7 748.1999999999999 173.1 748.6 178.5 748.6 C 233.4 748.6 279.6 708.4 293.7 653.7 C 297.59999999999997 656.9000000000001 302.5 658.9000000000001 307.9 658.9000000000001 L 340.5 658.9000000000001 C 334.9 677.7 335.4 701.1000000000001 335.7 717.5000000000001 C 335.7 717.9000000000001 335.7 718.2000000000002 335.8 718.6000000000001 C 335.7 719.5000000000001 335.8 720.5000000000001 335.90000000000003 721.5000000000001 C 335.90000000000003 722.6000000000001 335.90000000000003 723.7000000000002 336.00000000000006 724.9000000000001 C 336.1000000000001 726.1000000000001 336.1000000000001 727.3000000000001 336.1000000000001 728.4000000000001 C 337.50000000000006 759.9000000000001 343.6000000000001 793.2 359.50000000000006 820.5000000000001 C 360.20000000000005 821.8000000000001 361.1000000000001 823.1000000000001 361.80000000000007 824.4000000000001 C 362.50000000000006 825.6000000000001 363.4000000000001 826.9000000000001 364.30000000000007 828.1000000000001 C 365.1000000000001 829.3000000000002 366.00000000000006 830.6000000000001 366.80000000000007 831.8000000000002 C 368.00000000000006 833.5000000000002 369.30000000000007 835.2000000000002 370.70000000000005 836.7000000000002 C 374.80000000000007 841.5000000000001 379.30000000000007 845.8000000000002 384.20000000000005 849.6000000000001 C 384.40000000000003 849.8000000000002 384.80000000000007 850.1000000000001 385.00000000000006 850.3000000000002 C 385.90000000000003 851.0000000000002 386.80000000000007 851.6000000000001 387.70000000000005 852.2000000000002 C 389.90000000000003 853.9000000000002 392.20000000000005 855.3000000000002 394.50000000000006 856.7000000000002 C 395.70000000000005 857.4000000000002 397.00000000000006 858.2000000000002 398.20000000000005 858.9000000000002 C 421.30000000000007 871.6000000000003 449.40000000000003 875.9000000000002 475.20000000000005 871.4000000000002 C 475.90000000000003 871.3000000000002 476.50000000000006 871.2000000000002 477.20000000000005 871.0000000000002 C 483.20000000000005 869.9000000000002 489.00000000000006 868.2000000000003 494.70000000000005 866.1000000000003 C 495.5 865.6 496.4 865.2 497.3 864.9 z" stroke-linecap="round"/>
          </g>
          <g transform="matrix(1 0 0 1 -89.2436893044914 -188.54658730898643)">
            <path style="stroke: none; stroke-width: 1; stroke-dasharray: none; stroke-linecap: butt; stroke-dashoffset: 0; stroke-linejoin: miter; stroke-miterlimit: 4; fill: rgb(59,131,63); fill-rule: nonzero; opacity: 1;" paint-order="stroke" transform=" translate(-419.65, -411.09175797393755)" d="M 434.5 369.9 C 434.5 369.9 326.7 391.7 277.9 461.29999999999995 C 303.29999999999995 475.59999999999997 440.5 388.29999999999995 497.29999999999995 389.9 C 554.0999999999999 388.29999999999995 561.4 359.29999999999995 561.4 359.29999999999995 C 561.4 359.29999999999995 535.6 376.9 434.5 369.9 z" stroke-linecap="round"/>
          </g>
          <g transform="matrix(1 0 0 1 71.25631069550872 -12.738345282923888)">
            <path style="stroke: none; stroke-width: 1; stroke-dasharray: none; stroke-linecap: butt; stroke-dashoffset: 0; stroke-linejoin: miter; stroke-miterlimit: 4; fill: rgb(59,131,63); fill-rule: nonzero; opacity: 1;" paint-order="stroke" transform=" translate(-580.1500000000001, -586.9000000000001)" d="M 599.2 585.4 C 597.1 584.9 594.9000000000001 584.9 592.7 584.9 C 595.1 580.3 596.6 574.6999999999999 596.6 568.5 C 596.6 553.2 587.7 540.9 576.8000000000001 540.9 C 565.9000000000001 540.9 557 553.3 557 568.5 C 557 578.4 560.8 587.1 566.5 592 L 563.9 593.5 C 561.9 594.8 560 596.1 558.1 597.6 C 554.6 600.7 551.1 603.7 548.4 607.5 C 542.6999999999999 614.6 538.3 622.8 536.9 632.2 L 537.9 632.9000000000001 C 542.9 626.3000000000001 548.6999999999999 620.2 554.9 614.8000000000001 C 561.1999999999999 609.4000000000001 568 604.6 575.5 601.2 C 582.9 597.6 590.9 595.4000000000001 599.1 595.3000000000001 C 607.4 595.1 615.3000000000001 597.8000000000001 622.8000000000001 601.3000000000001 L 623.4000000000001 600.2 C 618 592.6 609.2 586.9 599.2 585.4 z" stroke-linecap="round"/>
          </g>
          <g transform="matrix(1 0 0 1 240.55631069550867 -22.88834528292398)">
            <path style="stroke: none; stroke-width: 1; stroke-dasharray: none; stroke-linecap: butt; stroke-dashoffset: 0; stroke-linejoin: miter; stroke-miterlimit: 4; fill: rgb(59,131,63); fill-rule: nonzero; opacity: 1;" paint-order="stroke" transform=" translate(-749.45, -576.75)" d="M 781.2 597.4 C 778.5 593.6 775 590.6999999999999 771.5 587.5 C 769.7 586 767.7 584.7 765.7 583.4 L 763.1 581.9 C 768.8000000000001 577 772.6 568.4 772.6 558.4 C 772.6 543.1 763.7 530.8 752.8000000000001 530.8 C 741.9000000000001 530.8 733.0000000000001 543.1999999999999 733.0000000000001 558.4 C 733.0000000000001 564.6 734.5000000000001 570.1999999999999 736.9000000000001 574.8 C 734.7 574.8 732.6000000000001 574.8 730.4000000000001 575.3 C 720.4000000000001 576.6999999999999 711.6000000000001 582.5 706.2 590 L 706.8000000000001 591.1 C 714.3000000000001 587.6 722.2 584.9 730.5000000000001 585.1 C 738.7000000000002 585.3000000000001 746.7000000000002 587.5 754.1000000000001 591 C 761.6000000000001 594.4 768.4000000000001 599.3 774.7000000000002 604.6 C 780.9000000000002 610 786.8000000000002 616.1 791.7000000000002 622.7 L 792.7000000000002 622 C 791.3 612.6 786.9 604.5 781.2 597.4 z" stroke-linecap="round"/>
          </g>
          <g transform="matrix(1 0 0 1 163.10631069550885 92.51739140145264)">
            <path style="stroke: none; stroke-width: 1; stroke-dasharray: none; stroke-linecap: butt; stroke-dashoffset: 0; stroke-linejoin: miter; stroke-miterlimit: 4; fill: rgb(59,131,63); fill-rule: nonzero; opacity: 1;" paint-order="stroke" transform=" translate(-672.0000000000002, -692.1557366843766)" d="M 707.5 652.5 L 701.8 656 C 700.8 656.5 700 657.2 699.0999999999999 657.8 L 696.3 659.1999999999999 C 694.4 659.9999999999999 692.6999999999999 661.0999999999999 690.9 661.9 L 685.5 663.8 C 681.9 664.6999999999999 678.4 666 674.7 665.9 L 672 666.4 L 669.2 666.4 C 667.3000000000001 666.5 665.4000000000001 666.4 663.4000000000001 666.1999999999999 C 659.4000000000001 666.1999999999999 655.4000000000001 665.1999999999999 651.2 664.5999999999999 C 642.8000000000001 662.8999999999999 633.9000000000001 660.5999999999999 623.9000000000001 657.9999999999999 L 623.1000000000001 658.8999999999999 C 629.1000000000001 663.9999999999999 635.8000000000002 668.1999999999998 643.0000000000001 671.5999999999999 C 644.8000000000001 688.4999999999999 653.1000000000001 740.8 688.6000000000001 739.8999999999999 C 716.9000000000001 736.7999999999998 709.9000000000001 679.6999999999998 707.2000000000002 662.6999999999998 C 707.4000000000002 662.4999999999998 707.6000000000001 662.2999999999998 707.8000000000002 662.0999999999998 L 712.7000000000002 656.7999999999998 C 715.7000000000002 652.9999999999999 718.2000000000002 648.8999999999999 720.9000000000002 644.9999999999999 L 719.8000000000002 644.3999999999999 C 714.9 646.9 711.4 649.9 707.5 652.5 z" stroke-linecap="round"/>
          </g>
        </g>
      </g>
    </g>
  </g>
</svg>